<?xml version="1.0" encoding="utf-8"?>
<!-- Generator: Adobe Illustrator 23.0.0, SVG Export Plug-In . SVG Version: 6.00 Build 0)  -->
<svg version="1.1" id="Capa_1" xmlns="http://www.w3.org/2000/svg" xmlns:xlink="http://www.w3.org/1999/xlink" x="0px" y="0px"
	 viewBox="0 0 32 32" style="enable-background:new 0 0 32 32;" xml:space="preserve">
<style type="text/css">
	.st0{fill-rule:evenodd;clip-rule:evenodd;fill:#FFFFFF;}
</style>
<path class="st0" d="M28,0H4C1.9,0,0,1.7,0,4v24c0,2.5,1.9,4,4,4h24c2.4,0,4-2,4-4V4C32,1.6,30.1,0,28,0z M9.5,27.2H4.8V12h4.8
	L9.5,27.2z M7.1,9.9c-1.5,0-2.8-1.2-2.8-2.8s1.2-2.8,2.8-2.8s2.8,1.2,2.8,2.8S8.7,9.9,7.1,9.9z M27.2,27.2h-4.8v-7.5
	c0-1.7,0-4-2.4-4s-2.8,2-2.8,3.9v7.6h-4.8V12h4.5v2.1c0.7-1.2,2.1-2.4,4.5-2.4c4.8,0,5.7,3.2,5.7,7.3C27.2,19.1,27.2,27.2,27.2,27.2
	z"/>
</svg>
