<svg xmlns="http://www.w3.org/2000/svg" width="32" height="32" viewBox="0 0 32 32">
    <path fill="#FFF" fill-rule="evenodd" d="M31.331,8.49819924 C32,10.9939324 32,16.2 32,16.2 C32,16.2 32,21.4070611 31.331,23.9018008 C30.963,25.2788255 29.879,26.3627606 28.502,26.7313581 C26.007,27.4 16,27.4 16,27.4 C16,27.4 5.993,27.4 3.498,26.7313581 C2.121,26.3627606 1.037,25.2788255 0.669,23.9018008 C0,21.4070611 0,16.2 0,16.2 C0,16.2 0,10.9939324 0.669,8.49819924 C1.037,7.12117449 2.121,6.03723942 3.498,5.66864189 C5.993,5 16,5 16,5 C16,5 26.007,5 28.502,5.66864189 C29.879,6.03723942 30.963,7.12117449 31.331,8.49819924 Z M12.8,21 L20.8,16.2 L12.8,11.4 L12.8,21 Z"/>
</svg>
